<?xml version="1.0" encoding="UTF-8"?>
<svg width="800" height="600" viewBox="0 0 800 600" fill="none" xmlns="http://www.w3.org/2000/svg">
  <path d="M650,165 C645,160 638,158 631,157 C624,156 617,157 610,158 C603,159 596,162 589,165 C582,168 575,170 568,171 C561,172 554,172 547,170 C540,168 533,165 526,162 C519,159 512,155 505,150 C498,145 491,140 484,134 C477,128 470,122 463,116 C456,110 449,104 442,98 C435,92 428,87 421,85 C414,83 407,83 400,85 C393,87 386,91 379,95 C372,99 365,104 358,108 C351,112 344,116 337,120 C330,124 323,128 316,132 C309,136 302,140 295,143 C288,146 281,148 274,149 C267,150 260,150 253,149 C246,148 239,146 232,143 C225,140 218,137 211,133 C204,129 197,125 190,123 C183,121 176,122 169,124 C162,126 155,130 148,134 C141,138 134,143 127,149 C120,155 113,163 106,170 C99,177 92,184 85,190 C78,196 71,201 64,205 C57,209 50,211 43,214 C36,217 29,221 22,225 C15,229 8,233 1,237 C-6,241 -13,245 -20,248 C-27,251 -34,253 -41,253 C-48,253 -55,251 -62,248 C-69,245 -76,241 -83,237 C-90,233 -97,229 -104,225 C-111,221 -118,217 -125,214 C-132,211 -139,209 -146,205 C-153,201 -160,196 -167,190 C-174,184 -181,177 -188,170 C-195,163 -202,155 -209,149 C-216,143 -223,138 -230,134 C-237,130 -244,126 -251,124 C-258,122 -265,121 -272,123 C-279,125 -286,129 -293,133 C-300,137 -307,140 -314,143 C-321,146 -328,148 -335,149 C-342,150 -349,150 -356,149 C-363,148 -370,146 -377,143 C-384,140 -391,136 -398,132 C-405,128 -412,124 -419,120 C-426,116 -433,112 -440,108 C-447,104 -454,99 -461,95 C-468,91 -475,87 -482,85 C-489,83 -496,83 -503,85 C-510,87 -517,92 -524,98 C-531,104 -538,110 -545,116 C-552,122 -559,128 -566,134 C-573,140 -580,145 -587,150 C-594,155 -601,159 -608,162 C-615,165 -622,168 -629,170 C-636,172 -643,172 -650,171 C-657,170 -664,168 -671,165 C-678,162 -685,159 -692,158 C-699,157 -706,156 -713,157 C-720,158 -727,160 -732,165"
  stroke="#4A90E2" stroke-width="1" stroke-opacity="0.2" transform="translate(400, 300)" />
</svg> 